<svg width="24" height="24" viewBox="0 0 24 24" fill="none" xmlns="http://www.w3.org/2000/svg">
<g clip-path="url(#clip0_994_2323)">
<path d="M17.4828 21.3457L15.2769 20.2432L15.2687 20.2391L15.2689 20.2388C15.0314 20.1014 14.8255 19.8564 14.6481 19.571C14.469 19.2829 14.3103 18.9394 14.1728 18.5877C13.8978 17.8843 13.7016 17.1321 13.597 16.6895M17.4828 21.3457L13.743 16.655M17.4828 21.3457C15.8715 22.2962 14.0012 22.85 12 22.85C9.99873 22.85 8.12746 22.2962 6.51598 21.3456L8.75015 20.2271L8.75027 20.2274L8.75823 20.2228C8.9896 20.0887 9.19052 19.8457 9.36383 19.5629C9.53897 19.277 9.69506 18.935 9.83076 18.5844C10.1023 17.883 10.2984 17.1311 10.403 16.6885M17.4828 21.3457L10.403 16.6885M13.597 16.6895L13.743 16.655M13.597 16.6895C13.597 16.6895 13.597 16.6895 13.597 16.6895L13.743 16.655M13.597 16.6895C13.5229 16.3761 13.6894 16.0563 13.9883 15.9367C14.004 15.9305 15.2463 15.4316 16.1077 14.9378M13.743 16.655C13.686 16.414 13.814 16.168 14.044 16.076C14.059 16.07 15.417 15.525 16.29 15.005M16.1077 14.9378C16.1219 14.9793 16.1356 15.0185 16.1487 15.0554L16.29 15.005M16.1077 14.9378C15.8269 14.1139 15.364 12.3724 15.364 9.852C15.364 8.25308 15.0671 7.0996 14.4779 6.33844C13.9042 5.59723 13.0342 5.20419 11.8188 5.15519M16.1077 14.9378C16.1436 14.9172 16.1788 14.8966 16.2132 14.8761L16.29 15.005M16.29 15.005L11.8188 5.15519M11.8188 5.15519L11.8649 5.10924L11.759 5.003L11.7545 5.15293C11.776 5.15358 11.7975 5.15433 11.8188 5.15519ZM11.8188 5.15519L11.5681 5.40507L11.462 5.299L11.5679 5.40524L11.8188 5.15519ZM10.403 16.6885C10.403 16.6885 10.403 16.6885 10.403 16.6885L10.257 16.654L10.403 16.6885ZM7.89217 14.9367C7.85635 14.9162 7.8212 14.8957 7.78681 14.8752L7.71 15.004L7.85134 15.0542C7.86443 15.0174 7.87806 14.9782 7.89217 14.9367ZM17.4964 14.9307L17.4965 14.9307L17.4942 14.9259L17.494 14.9255C17.4803 14.8948 16.664 13.0558 16.664 9.851C16.664 7.89142 16.2436 6.38748 15.3831 5.3719C14.5186 4.35169 13.2313 3.849 11.555 3.849C11.3827 3.849 11.2174 3.91647 11.0949 4.03893L10.8254 4.30845C9.05658 4.48362 7.337 6.28178 7.337 9.85C7.337 13.0443 6.52498 14.8839 6.50433 14.9302C6.37494 15.2142 6.46427 15.5505 6.71923 15.7314C7.34403 16.175 8.38061 16.6528 9.00206 16.9214C8.85381 17.4577 8.68219 17.9634 8.52129 18.3568C8.43448 18.5691 8.35193 18.7458 8.27905 18.876C8.24257 18.9412 8.2099 18.9923 8.18179 19.0294C8.1678 19.0478 8.15593 19.0615 8.14629 19.0713C8.14154 19.0761 8.13771 19.0795 8.13483 19.0819L8.13307 19.0833L5.46655 20.4165C5.46642 20.4166 5.46628 20.4167 5.46615 20.4167C5.40638 20.4463 5.35721 20.4845 5.31608 20.5259C2.7851 18.5372 1.15 15.4592 1.15 12C1.15 6.01784 6.01784 1.15 12 1.15C17.9822 1.15 22.85 6.01784 22.85 12C22.85 15.4601 21.215 18.538 18.6831 20.5268C18.642 20.4856 18.593 20.448 18.5336 20.4186C18.5335 20.4186 18.5335 20.4185 18.5334 20.4185L15.8933 19.0995C15.8835 19.0924 15.8641 19.0751 15.836 19.0396C15.8058 19.0013 15.7713 18.9493 15.7331 18.8834C15.657 18.7516 15.572 18.5737 15.4835 18.3606C15.3195 17.9655 15.1472 17.4591 14.9989 16.9224C15.6195 16.6538 16.657 16.176 17.2818 15.7324C17.5369 15.5514 17.6262 15.2148 17.4964 14.9307ZM12 -0.15C5.30016 -0.15 -0.15 5.30016 -0.15 12C-0.15 18.6998 5.30016 24.15 12 24.15C18.6998 24.15 24.15 18.6998 24.15 12C24.15 5.30016 18.6998 -0.15 12 -0.15Z" fill="white" stroke="white" stroke-width="0.3"/>
</g>
<defs>
<clipPath id="clip0_994_2323">
<rect width="24" height="24" fill="white"/>
</clipPath>
</defs>
</svg>
