<svg width="40" height="40" viewBox="0 0 40 40" fill="none" xmlns="http://www.w3.org/2000/svg">
<g clip-path="url(#clip0_1331_2471)">
<path d="M9.16667 16.6667H5.83333C5.37333 16.6667 5 17.04 5 17.5V20.8333C5 21.2933 5.37333 21.6667 5.83333 21.6667H9.16667C9.62667 21.6667 10 21.2933 10 20.8333V17.5C10 17.04 9.62667 16.6667 9.16667 16.6667ZM8.33333 20H6.66667V18.3333H8.33333V20ZM12.5 35H15.8333C16.2933 35 16.6667 34.6267 16.6667 34.1667V30.8333C16.6667 30.3733 16.2933 30 15.8333 30H12.5C12.04 30 11.6667 30.3733 11.6667 30.8333V34.1667C11.6667 34.6267 12.04 35 12.5 35ZM13.3333 31.6667H15V33.3333H13.3333V31.6667ZM39.3767 7.43L38.905 8.11833L39.37 7.425C38 6.48667 36.5717 6.37 35.1283 7.06667L30.405 9.28667L30.265 9.37L27.3417 7.84167C26.1183 7.02667 24.7233 6.59667 23.2783 6.59667H23.2767L20.8083 6.66667C20.455 6.67833 20.145 6.91167 20.0383 7.24833C19.9317 7.585 20.05 7.955 20.335 8.16667L25.525 12.0583L21.44 14.1817C20.9383 14.1333 19.4233 13.7617 18.7483 13.5967C17.81 13.3667 17.665 13.3333 17.5 13.3333H15.8333C15.4817 13.3333 15.1667 13.555 15.0483 13.8867C14.93 14.2183 15.035 14.5883 15.3083 14.8117C16.7617 15.9983 20.015 18.4533 22.0167 18.4533C22.3417 18.4533 22.6333 18.3883 22.8783 18.245L39.39 9.85C39.775 9.58 40.0017 9.125 40 8.63667C39.9983 8.14667 39.7633 7.695 39.3767 7.43ZM22.085 16.7783C21.6833 16.9267 20.3733 16.32 18.8517 15.3367C21.2633 15.92 21.655 15.9333 22.0517 15.74L27.4667 12.9267C27.7217 12.7933 27.89 12.54 27.9133 12.255C27.935 11.97 27.8117 11.6917 27.5817 11.52L23.2417 8.265L23.3 8.26333C24.3917 8.26333 25.47 8.59667 26.4917 9.27167L29.905 11.0633C30.1633 11.1983 30.4717 11.1883 30.7217 11.04L35.8467 8.57167C36.68 8.16667 37.4183 8.19333 38.1533 8.61833L22.085 16.7783ZM9.16667 8.33333H5.83333C5.37333 8.33333 5 8.70667 5 9.16667C5 9.62667 5.37333 10 5.83333 10H9.16667C9.62667 10 10 9.62667 10 9.16667C10 8.70667 9.62667 8.33333 9.16667 8.33333ZM4.16667 35H7.5C7.96 35 8.33333 34.6267 8.33333 34.1667V30.8333C8.33333 30.3733 7.96 30 7.5 30H4.16667C3.70667 30 3.33333 30.3733 3.33333 30.8333V34.1667C3.33333 34.6267 3.70667 35 4.16667 35ZM5 31.6667H6.66667V33.3333H5V31.6667ZM20.8333 35H24.1667C24.6267 35 25 34.6267 25 34.1667V30.8333C25 30.3733 24.6267 30 24.1667 30H20.8333C20.3733 30 20 30.3733 20 30.8333V34.1667C20 34.6267 20.3733 35 20.8333 35ZM21.6667 31.6667H23.3333V33.3333H21.6667V31.6667ZM37.5 26.6667H33.3333V24.1667C33.3333 23.7067 32.96 23.3333 32.5 23.3333H22.5C22.04 23.3333 21.6667 23.7067 21.6667 24.1667V26.6667H13.3333V14.1667C13.3333 13.7067 12.96 13.3333 12.5 13.3333H11.99L13.29 9.43C13.3183 9.345 13.3333 9.25667 13.3333 9.16667V5.83333C13.3333 5.37333 12.96 5 12.5 5H8.33333V0.833333C8.33333 0.373333 7.96 0 7.5 0C7.04 0 6.66667 0.373333 6.66667 0.833333V5H2.5C2.04 5 1.66667 5.37333 1.66667 5.83333V9.16667C1.66667 9.25667 1.68167 9.345 1.71 9.43L3.01 13.3333H2.5C2.04 13.3333 1.66667 13.7067 1.66667 14.1667V26.6667H0.833333C0.373333 26.6667 0 27.04 0 27.5V39.1667C0 39.6267 0.373333 40 0.833333 40H37.5C37.96 40 38.3333 39.6267 38.3333 39.1667V27.5C38.3333 27.04 37.96 26.6667 37.5 26.6667ZM23.3333 25H31.6667V26.6667H23.3333V25ZM3.33333 15.0017H4.16667C4.435 15.0017 4.68667 14.8717 4.84333 14.655C4.99833 14.4367 5.04167 14.1567 4.95667 13.9033L3.33333 9.03167V6.66667H11.6667V9.03L10.0433 13.9017C9.95667 14.1567 10 14.4367 10.1567 14.6533C10.3133 14.8717 10.565 15 10.8333 15H11.6667V26.6667H3.33333V15.0017ZM33.3333 38.3333H30V31.6667H33.3333V38.3333ZM36.6667 38.3333H35V30.8333C35 30.3733 34.6267 30 34.1667 30H29.1667C28.7067 30 28.3333 30.3733 28.3333 30.8333V38.3333H1.66667V28.3333H36.6667V38.3333Z" fill="white"/>
</g>
<defs>
<clipPath id="clip0_1331_2471">
<rect width="40" height="40" fill="white"/>
</clipPath>
</defs>
</svg>
