<svg width="37" height="46" viewBox="0 0 37 46" fill="none" xmlns="http://www.w3.org/2000/svg">
<g clip-path="url(#clip0_1331_2507)">
<path d="M14.3826 29.4056H0.958841C0.4302 29.4056 0 28.9754 0 28.4467V19.4975C0 18.9689 0.4302 18.5387 0.958841 18.5387H14.3826C14.9113 18.5387 15.3415 18.9689 15.3415 19.4975V28.4467C15.3415 28.9754 14.9113 29.4056 14.3826 29.4056ZM0.958841 19.1779C0.782415 19.1779 0.639228 19.3211 0.639228 19.4975V28.4467C0.639228 28.6232 0.782415 28.7663 0.958841 28.7663H14.3826C14.559 28.7663 14.7022 28.6232 14.7022 28.4467V19.4975C14.7022 19.3211 14.559 19.1779 14.3826 19.1779H0.958841Z" fill="white"/>
<path d="M9.90798 19.1779H5.43338C5.25696 19.1779 5.11377 19.0347 5.11377 18.8583V17.5799C5.11377 17.0512 5.54397 16.621 6.07261 16.621H9.26875C9.79739 16.621 10.2276 17.0512 10.2276 17.5799V18.8583C10.2276 19.0347 10.0844 19.1779 9.90798 19.1779ZM5.753 18.5387H9.58836V17.5799C9.58836 17.4034 9.44518 17.2602 9.26875 17.2602H6.07261C5.89618 17.2602 5.753 17.4034 5.753 17.5799V18.5387Z" fill="white"/>
<path d="M7.67077 24.6305C6.88388 24.6305 6.09699 24.5308 5.33119 24.3314L0.239106 23.0031C0.067793 22.9583 -0.0344834 22.7838 0.0102625 22.6131C0.0543692 22.4418 0.232075 22.3408 0.400191 22.3843L5.49228 23.7126C6.91712 24.0846 8.42378 24.0846 9.84861 23.7126L14.9413 22.3843C15.1095 22.3408 15.2865 22.4418 15.3313 22.6131C15.376 22.7838 15.2737 22.9583 15.1024 23.0031L10.0103 24.3314C9.24518 24.5308 8.45766 24.6305 7.67077 24.6305Z" fill="white"/>
<path d="M7.67079 23.6525C6.96572 23.6525 6.39233 23.0791 6.39233 22.3741C6.39233 21.669 6.96572 21.0956 7.67079 21.0956C8.37586 21.0956 8.94924 21.669 8.94924 22.3741C8.94924 23.0791 8.37586 23.6525 7.67079 23.6525ZM7.67079 21.7348C7.31857 21.7348 7.03156 22.0219 7.03156 22.3741C7.03156 22.7263 7.31857 23.0133 7.67079 23.0133C8.023 23.0133 8.31002 22.7263 8.31002 22.3741C8.31002 22.0219 8.023 21.7348 7.67079 21.7348Z" fill="white"/>
</g>
<g clip-path="url(#clip1_1331_2507)">
<path d="M36.0411 29.4056H22.6173C22.0886 29.4056 21.6584 28.9754 21.6584 28.4467V19.4975C21.6584 18.9689 22.0886 18.5387 22.6173 18.5387H36.0411C36.5697 18.5387 36.9999 18.9689 36.9999 19.4975V28.4467C36.9999 28.9754 36.5697 29.4056 36.0411 29.4056ZM22.6173 19.1779C22.4409 19.1779 22.2977 19.3211 22.2977 19.4975V28.4467C22.2977 28.6232 22.4409 28.7663 22.6173 28.7663H36.0411C36.2175 28.7663 36.3607 28.6232 36.3607 28.4467V19.4975C36.3607 19.3211 36.2175 19.1779 36.0411 19.1779H22.6173Z" fill="white"/>
<path d="M31.5664 19.1779H27.0918C26.9154 19.1779 26.7722 19.0347 26.7722 18.8583V17.5799C26.7722 17.0512 27.2024 16.621 27.7311 16.621H30.9272C31.4558 16.621 31.886 17.0512 31.886 17.5799V18.8583C31.886 19.0347 31.7429 19.1779 31.5664 19.1779ZM27.4114 18.5387H31.2468V17.5799C31.2468 17.4034 31.1036 17.2602 30.9272 17.2602H27.7311C27.5546 17.2602 27.4114 17.4034 27.4114 17.5799V18.5387Z" fill="white"/>
<path d="M29.3292 24.6305C28.5423 24.6305 27.7554 24.5308 26.9896 24.3314L21.8976 23.0031C21.7262 22.9583 21.624 22.7838 21.6687 22.6131C21.7128 22.4418 21.8905 22.3408 22.0586 22.3843L27.1507 23.7126C28.5756 24.0846 30.0822 24.0846 31.5071 23.7126L36.5998 22.3843C36.7679 22.3408 36.945 22.4418 36.9897 22.6131C37.0345 22.7838 36.9322 22.9583 36.7609 23.0031L31.6688 24.3314C30.9036 24.5308 30.1161 24.6305 29.3292 24.6305Z" fill="white"/>
<path d="M29.3292 23.6525C28.6242 23.6525 28.0508 23.0791 28.0508 22.3741C28.0508 21.669 28.6242 21.0956 29.3292 21.0956C30.0343 21.0956 30.6077 21.669 30.6077 22.3741C30.6077 23.0791 30.0343 23.6525 29.3292 23.6525ZM29.3292 21.7348C28.977 21.7348 28.69 22.0219 28.69 22.3741C28.69 22.7263 28.977 23.0133 29.3292 23.0133C29.6815 23.0133 29.9685 22.7263 29.9685 22.3741C29.9685 22.0219 29.6815 21.7348 29.3292 21.7348Z" fill="white"/>
</g>
<g clip-path="url(#clip2_1331_2507)">
<path d="M28.8484 12.9403C28.8457 12.9339 28.8484 12.9267 28.8457 12.9195L28.8403 12.9069C28.8385 12.9033 28.8376 12.8996 28.8358 12.8951L27.0408 8.40731C26.9488 8.17538 26.6862 8.06167 26.4551 8.15553C26.2232 8.24848 26.1113 8.51109 26.2042 8.74211L27.3801 11.6814C24.8786 9.92521 21.7543 9.02548 18.0489 9.02548C13.6468 9.02548 10.0524 10.2799 7.36493 12.7544C7.18174 12.9231 7.17001 13.2092 7.33876 13.3924C7.50752 13.5765 7.79359 13.5873 7.97679 13.4186C10.4919 11.102 13.8805 9.92792 18.0489 9.92792C21.7164 9.92792 24.7793 10.8385 27.1753 12.6352H23.4635C23.2145 12.6352 23.0123 12.8374 23.0123 13.0865C23.0123 13.3355 23.2145 13.5377 23.4635 13.5377H28.427C28.4946 13.5377 28.5605 13.5187 28.6228 13.4889C28.6426 13.479 28.6571 13.4646 28.6751 13.4519C28.704 13.433 28.7347 13.4186 28.7591 13.3924C28.769 13.3825 28.7717 13.3689 28.7798 13.3581C28.7852 13.3509 28.7942 13.3482 28.7997 13.34C28.8078 13.3283 28.8069 13.3139 28.8132 13.3021C28.8367 13.2588 28.8538 13.2155 28.8619 13.1686C28.8655 13.1487 28.8701 13.1307 28.871 13.1108C28.8755 13.0531 28.8673 12.9953 28.8484 12.9403Z" fill="white"/>
</g>
<g clip-path="url(#clip3_1331_2507)">
<path d="M7.24902 32.1839C7.25173 32.1902 7.24902 32.1974 7.25173 32.2046L7.25714 32.2173C7.25894 32.2209 7.25985 32.2245 7.26165 32.229L9.0566 36.7168C9.14865 36.9488 9.41126 37.0625 9.64228 36.9686C9.87421 36.8757 9.98611 36.6131 9.89316 36.382L8.71729 33.4428C11.2188 35.1989 14.3431 36.0987 18.0485 36.0987C22.4506 36.0987 26.045 34.8443 28.7325 32.3698C28.9157 32.201 28.9274 31.915 28.7587 31.7318C28.5899 31.5477 28.3038 31.5368 28.1206 31.7056C25.6055 34.0221 22.2169 35.1962 18.0485 35.1962C14.381 35.1962 11.3181 34.2857 8.92214 32.4889H12.6339C12.8829 32.4889 13.0851 32.2868 13.0851 32.0377C13.0851 31.7886 12.8829 31.5865 12.6339 31.5865H7.67046C7.60277 31.5865 7.5369 31.6054 7.47463 31.6352C7.45477 31.6451 7.44033 31.6596 7.42229 31.6722C7.39341 31.6911 7.36272 31.7056 7.33836 31.7318C7.32843 31.7417 7.32573 31.7552 7.3176 31.7661C7.31219 31.7733 7.30316 31.776 7.29775 31.7841C7.28963 31.7958 7.29053 31.8103 7.28421 31.822C7.26075 31.8653 7.2436 31.9086 7.23548 31.9556C7.23187 31.9754 7.22736 31.9935 7.22646 32.0133C7.22194 32.0711 7.23007 32.1288 7.24902 32.1839Z" fill="white"/>
</g>
<defs>
<clipPath id="clip0_1331_2507">
<rect width="15.3415" height="15.3415" fill="white" transform="translate(0 15.3426)"/>
</clipPath>
<clipPath id="clip1_1331_2507">
<rect width="15.3415" height="15.3415" fill="white" transform="translate(21.6584 15.3426)"/>
</clipPath>
<clipPath id="clip2_1331_2507">
<rect width="21.6585" height="21.6585" fill="white" transform="translate(7.21948 0.00109863)"/>
</clipPath>
<clipPath id="clip3_1331_2507">
<rect width="21.6585" height="21.6585" fill="white" transform="matrix(-1 0 0 -1 28.8779 45.123)"/>
</clipPath>
</defs>
</svg>
