<svg width="19" height="19" viewBox="0 0 19 19" fill="none" xmlns="http://www.w3.org/2000/svg">
<path d="M1.58331 7.12501C1.58331 6.03634 1.58331 5.49201 1.78957 5.07377C1.98429 4.6789 2.30387 4.35932 2.69874 4.1646C3.11698 3.95834 3.66131 3.95834 4.74998 3.95834H14.25C15.3386 3.95834 15.883 3.95834 16.3012 4.1646C16.6961 4.35932 17.0157 4.6789 17.2104 5.07377C17.4166 5.49201 17.4166 6.03634 17.4166 7.12501V7.12501C17.4166 7.39718 17.4166 7.53326 17.3651 7.63782C17.3164 7.73654 17.2365 7.81643 17.1378 7.86511C17.0332 7.91668 16.8971 7.91668 16.625 7.91668H2.37498C2.10281 7.91668 1.96673 7.91668 1.86217 7.86511C1.76345 7.81643 1.68356 7.73654 1.63488 7.63782C1.58331 7.53326 1.58331 7.39718 1.58331 7.12501V7.12501Z" fill="#0E4B64"/>
<path fill-rule="evenodd" clip-rule="evenodd" d="M1.58331 13.4167C1.58331 15.3023 1.58331 16.2451 2.1691 16.8309C2.75489 17.4167 3.69769 17.4167 5.58331 17.4167H13.4166C15.3023 17.4167 16.2451 17.4167 16.8309 16.8309C17.4166 16.2451 17.4166 15.3023 17.4166 13.4167V10.5C17.4166 10.0286 17.4166 9.79289 17.2702 9.64645C17.1238 9.5 16.888 9.5 16.4166 9.5H2.58331C2.11191 9.5 1.87621 9.5 1.72976 9.64645C1.58331 9.79289 1.58331 10.0286 1.58331 10.5V13.4167ZM5.54165 11.875C5.54165 11.6028 5.54165 11.4667 5.59321 11.3622C5.64189 11.2635 5.72179 11.1836 5.8205 11.1349C5.92506 11.0833 6.06115 11.0833 6.33331 11.0833H7.91664C8.18881 11.0833 8.3249 11.0833 8.42946 11.1349C8.52817 11.1836 8.60807 11.2635 8.65675 11.3622C8.70831 11.4667 8.70831 11.6028 8.70831 11.875C8.70831 12.1472 8.70831 12.2833 8.65675 12.3878C8.60807 12.4865 8.52817 12.5664 8.42946 12.6151C8.3249 12.6667 8.18881 12.6667 7.91665 12.6667H6.33331C6.06115 12.6667 5.92506 12.6667 5.8205 12.6151C5.72179 12.5664 5.64189 12.4865 5.59321 12.3878C5.54165 12.2833 5.54165 12.1472 5.54165 11.875ZM5.59321 14.5289C5.54165 14.6334 5.54165 14.7695 5.54165 15.0417C5.54165 15.3138 5.54165 15.4499 5.59321 15.5545C5.64189 15.6532 5.72179 15.7331 5.8205 15.7818C5.92506 15.8333 6.06115 15.8333 6.33331 15.8333H7.91665C8.18881 15.8333 8.3249 15.8333 8.42946 15.7818C8.52817 15.7331 8.60807 15.6532 8.65675 15.5545C8.70831 15.4499 8.70831 15.3138 8.70831 15.0417C8.70831 14.7695 8.70831 14.6334 8.65675 14.5289C8.60807 14.4301 8.52817 14.3502 8.42946 14.3016C8.3249 14.25 8.18881 14.25 7.91665 14.25H6.33331C6.06115 14.25 5.92506 14.25 5.8205 14.3016C5.72179 14.3502 5.64189 14.4301 5.59321 14.5289ZM10.2916 11.875C10.2916 11.6028 10.2916 11.4667 10.3432 11.3622C10.3919 11.2635 10.4718 11.1836 10.5705 11.1349C10.6751 11.0833 10.8111 11.0833 11.0833 11.0833H12.6666C12.9388 11.0833 13.0749 11.0833 13.1795 11.1349C13.2782 11.1836 13.3581 11.2635 13.4067 11.3622C13.4583 11.4667 13.4583 11.6028 13.4583 11.875C13.4583 12.1472 13.4583 12.2833 13.4067 12.3878C13.3581 12.4865 13.2782 12.5664 13.1795 12.6151C13.0749 12.6667 12.9388 12.6667 12.6666 12.6667H11.0833C10.8111 12.6667 10.6751 12.6667 10.5705 12.6151C10.4718 12.5664 10.3919 12.4865 10.3432 12.3878C10.2916 12.2833 10.2916 12.1472 10.2916 11.875ZM10.3432 14.5289C10.2916 14.6334 10.2916 14.7695 10.2916 15.0417C10.2916 15.3138 10.2916 15.4499 10.3432 15.5545C10.3919 15.6532 10.4718 15.7331 10.5705 15.7818C10.6751 15.8333 10.8111 15.8333 11.0833 15.8333H12.6666C12.9388 15.8333 13.0749 15.8333 13.1795 15.7818C13.2782 15.7331 13.3581 15.6532 13.4067 15.5545C13.4583 15.4499 13.4583 15.3138 13.4583 15.0417C13.4583 14.7695 13.4583 14.6334 13.4067 14.5289C13.3581 14.4301 13.2782 14.3502 13.1795 14.3016C13.0749 14.25 12.9388 14.25 12.6666 14.25H11.0833C10.8111 14.25 10.6751 14.25 10.5705 14.3016C10.4718 14.3502 10.3919 14.4301 10.3432 14.5289Z" fill="#0E4B64"/>
<path d="M5.54169 2.375L5.54169 4.75" stroke="#0E4B64" stroke-width="2" stroke-linecap="round"/>
<path d="M13.4583 2.375L13.4583 4.75" stroke="#0E4B64" stroke-width="2" stroke-linecap="round"/>
</svg>
