<svg width="36" height="41" viewBox="0 0 36 41" fill="none" xmlns="http://www.w3.org/2000/svg">
<g clip-path="url(#clip0_1341_2478)">
<path d="M15.828 6.76182C16.014 7.18377 16.464 7.35631 16.8345 7.14448C17.5635 6.72935 18.435 6.72935 19.164 7.14448C19.5345 7.35461 19.9845 7.18377 20.1705 6.76182C20.2245 6.63882 20.25 6.50898 20.25 6.38086C20.25 6.06823 20.0985 5.76586 19.8345 5.61552C18.6855 4.96123 17.313 4.96123 16.164 5.61552C15.792 5.82565 15.6435 6.33986 15.828 6.76182ZM17.589 0.0480644C15.2085 0.558856 13.5225 3.14015 13.6785 6.03406L13.9695 11.6323L1.9695 22.5639C0.718499 23.7051 -6.81597e-07 25.4066 -6.01771e-07 27.2328L-4.85429e-07 29.8944C-4.72511e-07 30.1899 0.141 30.4649 0.3615 30.6204C0.582 30.7759 0.858 30.7912 1.0905 30.658L14.478 23.0354L14.9805 34.5051L9.4185 37.6724C9.0465 37.8842 8.8965 38.3967 9.0825 38.8187L9.8325 40.527C9.984 40.8721 10.3185 41.0583 10.65 40.9831L18.003 39.309L25.356 40.9831C25.6875 41.0583 26.022 40.8721 26.1735 40.527L26.9235 38.8187C27.108 38.3967 26.958 37.8842 26.5875 37.6724L21.0255 34.5051L21.528 23.0354L34.9155 30.658C35.148 30.7912 35.424 30.7759 35.6445 30.6204C35.865 30.4649 36 30.1899 36 29.8944L36 27.2328C36 25.4066 35.2815 23.7034 34.0275 22.5656L22.0275 11.634L22.3185 6.03577C22.482 3.11794 20.787 0.560565 18.4065 0.0480644C18.2535 0.0156051 18.1155 0.000231905 17.9985 0.00023191C17.8815 0.000231915 17.7435 0.0139 17.589 0.0480644ZM18.132 1.72565C19.773 2.07757 20.922 3.86106 20.8245 5.93327L20.511 11.9722C20.4975 12.2541 20.6025 12.5155 20.7915 12.6897L33.093 23.8981C33.987 24.7113 34.5 25.9276 34.5 27.2328L34.5 28.5123L21.168 20.9222C20.9415 20.7941 20.673 20.8043 20.454 20.9495C20.235 21.0947 20.0955 21.3578 20.082 21.6448L19.497 34.9784C19.4895 35.2995 19.6455 35.6326 19.911 35.7847L25.2405 38.8187L25.083 39.1791L18.1455 37.5989C18.048 37.5767 17.949 37.5767 17.8515 37.5989L10.914 39.1791L10.7565 38.8187L16.086 35.7847C16.3515 35.6344 16.524 35.3012 16.5 34.9784L15.915 21.6448C15.9015 21.3561 15.762 21.0947 15.543 20.9495C15.324 20.8026 15.0555 20.7924 14.829 20.9222L1.5 28.5123L1.5 27.2328C1.5 25.9276 2.0115 24.713 2.907 23.8981L15.2085 12.6897C15.399 12.5155 15.4965 12.2507 15.489 11.9722L15.1755 5.93327C15.0795 3.87131 16.227 2.07757 17.868 1.72565L17.7285 0.886855L18.132 1.72565Z" fill="white"/>
</g>
<defs>
<clipPath id="clip0_1341_2478">
<rect width="41" height="36" fill="white" transform="translate(0 41) rotate(-90)"/>
</clipPath>
</defs>
</svg>
