<svg width="22" height="23" viewBox="0 0 22 23" fill="none" xmlns="http://www.w3.org/2000/svg">
<path d="M0.08881 22.7666C0.870983 23.1839 1.73131 22.9966 2.86565 22.5588C2.8883 22.5499 2.90648 22.5369 2.9253 22.5199L11.1748 14.2079L12.0326 14.97C12.3564 15.2832 12.8026 15.1833 13.0578 14.9302C13.1723 14.8166 13.2495 14.6748 13.283 14.5049L13.4355 13.0078C15.0455 13.5422 16.7894 13.4909 18.2488 12.8607C18.9423 12.5794 19.5761 12.1571 20.1325 11.605L20.1631 11.5746C21.3695 10.361 22.0388 8.68542 21.9983 6.98138C21.9954 4.06656 19.801 1.20013 16.8976 0.314577C14.6407 -0.4324 12 0.18043 10.3269 1.83954C10.1336 2.03127 9.95306 2.23723 9.79261 2.44857C8.45794 4.13363 8.15744 6.61248 9.0082 8.8126L7.40047 9.24478C7.2397 9.28148 7.1121 9.34602 7.02119 9.43587C6.77492 9.68043 6.83011 10.0775 7.15899 10.4034L8.27834 11.4743L7.1239 12.5677L5.47439 12.6171C5.38283 12.6196 5.30946 12.6952 5.30978 12.786L5.32318 14.9156L3.43601 14.959C3.39231 14.9602 3.35084 14.9776 3.32022 15.0083L2.54283 15.7793C2.51061 15.811 2.49307 15.8537 2.49307 15.8983L2.49498 17.8807L1.21231 17.9874C1.16956 17.9908 1.13192 18.0105 1.1013 18.0411L0.151015 19.0659C0.122944 19.0963 0.107313 19.1355 0.106356 19.1763L0.0728609 20.8462L0.000129734 22.6119C-0.0024223 22.6761 0.0320301 22.7363 0.08881 22.7666ZM16.1438 3.83306C16.183 3.78212 16.2277 3.73182 16.2755 3.68405C16.6899 3.27307 17.332 3.10886 17.874 3.27528C18.578 3.4727 19.0779 4.13742 19.0594 4.85403C19.0571 5.45294 18.6651 6.05818 18.1139 6.29388C17.5397 6.55395 16.8159 6.44321 16.3572 6.02243C16.3355 6.00344 16.3125 5.98161 16.2899 5.95915C15.7192 5.42193 15.6512 4.44684 16.1438 3.83306ZM0.479578 21.7881L0.622807 20.8494C0.625359 20.8323 0.633015 20.8161 0.645457 20.8035L10.3091 10.9346L10.31 10.9336C10.3161 10.9273 10.3231 10.9222 10.3304 10.9184L12.0141 10.0452C12.0511 10.0259 12.0961 10.0364 12.1213 10.0693C12.1461 10.1022 12.1429 10.1487 12.1139 10.1784L0.623446 21.8592C0.604305 21.8789 0.558371 21.8918 0.525196 21.876C0.492338 21.8599 0.473835 21.8244 0.479578 21.7881Z" fill="#0E4B64"/>
</svg>
