<svg width="117" height="93" viewBox="0 0 117 93" fill="none" xmlns="http://www.w3.org/2000/svg">
<path d="M15.4571 82.2961H16.6368C16.8015 82.2961 16.9387 82.4332 16.9387 82.5978V86.5213H21.7949V82.5978C21.7949 82.4332 21.9321 82.2961 22.0967 82.2961H23.2765C23.4411 82.2961 23.5783 82.4332 23.5783 82.5978V92.1732C23.5783 92.3378 23.4411 92.475 23.2765 92.475H22.0967C21.9321 92.475 21.7949 92.3378 21.7949 92.1732V88.1812H16.9387V92.1732C16.9387 92.3378 16.8015 92.475 16.6368 92.475H15.4571C15.2925 92.475 15.1553 92.3378 15.1553 92.1732V82.5978C15.1553 82.4332 15.2925 82.2961 15.4571 82.2961Z" fill="#B87FB7"/>
<path d="M32.2484 82.2961H33.5105C33.634 82.2961 33.7437 82.3646 33.7849 82.4744L37.9964 92.1183C38.0787 92.3241 37.9415 92.5436 37.722 92.5436H36.5011C36.3776 92.5436 36.2679 92.475 36.213 92.3515L35.335 90.2664C35.2939 90.1566 35.1704 90.0743 35.0469 90.0743H30.6297C30.5062 90.0743 30.3964 90.1429 30.3416 90.2664L29.4499 92.3515C29.395 92.4613 29.2853 92.5436 29.1618 92.5436H27.9957C27.7762 92.5436 27.6253 92.3241 27.7214 92.1183L31.9329 82.4744C31.9878 82.3646 32.0975 82.2961 32.2073 82.2961H32.2484ZM34.608 88.5104L32.852 84.4361L31.1098 88.5104H34.6217H34.608Z" fill="#B87FB7"/>
<path d="M43.5797 88.3869L39.8895 82.7624C39.7524 82.5566 39.8895 82.2823 40.1502 82.2823H41.5357C41.6455 82.2823 41.7415 82.3371 41.7964 82.4195L44.54 86.7681L47.3385 82.4057C47.3934 82.3234 47.4895 82.2686 47.5992 82.2686H48.9161C49.1631 82.2686 49.3003 82.5429 49.1768 82.7487L45.5003 88.3183C45.5003 88.3183 45.4454 88.4281 45.4454 88.4829V92.1457C45.4454 92.3103 45.3082 92.4475 45.1436 92.4475H43.9501C43.7855 92.4475 43.6483 92.3103 43.6483 92.1457V88.5241C43.6483 88.5241 43.6346 88.4006 43.5935 88.3595L43.5797 88.3869Z" fill="#B87FB7"/>
<path d="M55.5555 82.2961H56.8176C56.9411 82.2961 57.0508 82.3646 57.092 82.4744L61.3035 92.1183C61.3858 92.3241 61.2486 92.5436 61.0291 92.5436H59.8082C59.6847 92.5436 59.575 92.475 59.5201 92.3515L58.6422 90.2664C58.601 90.1566 58.4775 90.0743 58.3541 90.0743H53.9368C53.8133 90.0743 53.7036 90.1429 53.6487 90.2664L52.757 92.3515C52.7021 92.4613 52.5924 92.5436 52.4689 92.5436H51.3029C51.0834 92.5436 50.9325 92.3241 51.0285 92.1183L55.24 82.4744C55.2949 82.3646 55.4046 82.2961 55.5144 82.2961H55.5555ZM57.9151 88.5104L56.1591 84.4361L54.4169 88.5104H57.9288H57.9151Z" fill="#B87FB7"/>
<path d="M65.8995 82.2961H67.0792C67.2439 82.2961 67.381 82.4332 67.381 82.5978V87.413L72.1276 82.3921C72.1276 82.3921 72.2647 82.2961 72.347 82.2961H73.7189C73.9932 82.2961 74.1304 82.6253 73.9384 82.8173L70.1933 86.6859L74.2539 92.0086C74.4048 92.2144 74.2539 92.5024 74.007 92.5024H72.594C72.498 92.5024 72.4019 92.4613 72.347 92.379L68.9586 87.9205L67.4633 89.457C67.4633 89.457 67.381 89.5942 67.381 89.6765V92.2006C67.381 92.3653 67.2439 92.5024 67.0792 92.5024H65.8995C65.7348 92.5024 65.5977 92.3653 65.5977 92.2006V82.6253C65.5977 82.4607 65.7348 82.3235 65.8995 82.3235V82.2961Z" fill="#B87FB7"/>
<path d="M78.1636 88.1538V82.5978C78.1636 82.4332 78.3008 82.2961 78.4654 82.2961H79.6452C79.8098 82.2961 79.947 82.4332 79.947 82.5978V88.0852C79.947 89.9783 80.9209 90.9797 82.526 90.9797C84.131 90.9797 85.0913 90.0332 85.0913 88.1538V82.5978C85.0913 82.4332 85.2285 82.2961 85.3931 82.2961H86.5729C86.7375 82.2961 86.8747 82.4332 86.8747 82.5978V88.0714C86.8747 91.1169 85.1599 92.6396 82.4986 92.6396C79.8372 92.6396 78.1636 91.1169 78.1636 88.1538Z" fill="#B87FB7"/>
<path d="M92.1557 82.2961H93.5961C93.7059 82.2961 93.8019 82.3509 93.8568 82.4332L96.8611 87.1112L99.8654 82.4332C99.9202 82.3509 100.016 82.2961 100.126 82.2961H101.566C101.731 82.2961 101.868 82.4332 101.868 82.5978V92.1732C101.868 92.3378 101.731 92.475 101.566 92.475H100.387C100.222 92.475 100.085 92.3378 100.085 92.1732V85.1769L96.8748 89.9783H96.8199L93.6373 85.2043V92.1732C93.6373 92.3378 93.5001 92.475 93.3355 92.475H92.1832C92.0185 92.475 91.8813 92.3378 91.8813 92.1732V82.5978C91.8813 82.4332 92.0185 82.2961 92.1832 82.2961H92.1557Z" fill="#B87FB7"/>
<path d="M70.8656 61.6361L66.9422 65.6144L63.0325 61.6361L56.3105 68.4678V68.8519V69.1674L63.0325 75.8757L66.9422 71.966L70.8656 75.8757L77.5739 69.1674V68.8519V68.4678L70.8656 61.6361Z" fill="#B87FB7"/>
<path d="M78.9043 30.3311C77.1209 30.3174 76.7368 28.7947 76.6682 27.1897C76.682 26.3254 76.6682 25.4474 76.6408 24.5969C76.6134 24.1442 75.6942 25.4474 75.6531 25.5023C75.2964 26.0785 74.8163 26.8741 74.83 27.5875C74.8574 28.5615 74.8163 29.5081 74.7614 30.4546C74.5968 30.5781 74.4322 30.6878 74.2675 30.7427C73.513 31.0308 72.8271 31.2091 72.2372 30.5232C71.126 29.2337 71.5925 26.6272 71.7022 25.1319C71.7571 24.3911 71.0986 25.2965 70.9614 25.4749C70.5362 26.051 69.9737 26.9839 69.9188 27.7247C69.8365 28.9044 69.6582 30.1254 69.7954 31.3051C69.864 31.9636 70.056 33.3629 70.5773 33.843C71.6748 34.8582 73.7188 33.5961 74.5968 32.8004C74.8437 32.5672 75.0632 32.3203 75.2553 32.0734C75.3101 32.1968 75.3238 32.334 75.3924 32.4575C76.2018 33.9528 78.4104 33.7058 79.6314 32.8279C80.7425 32.0185 81.5656 30.3723 81.8263 29.0691C82.2241 27.1074 81.209 25.077 81.3599 23.0742C81.4148 22.3334 80.7563 23.2388 80.6191 23.4171C80.1938 23.9796 79.6314 24.9261 79.5765 25.6669C79.4942 26.7781 79.6314 27.8893 79.796 28.9868C79.8646 29.3571 79.9195 29.7138 79.9881 30.0842C79.9881 30.1117 79.9881 30.1254 79.9881 30.1528C79.6314 30.2488 79.2884 30.3174 78.918 30.3311H78.9043Z" fill="#B87FB7"/>
<path d="M115.066 44.4746C111.554 43.336 105.271 29.3022 99.0705 29.5491C92.8699 29.796 88.9464 43.0067 88.9464 43.0067L91.3883 43.9807C91.3883 43.9807 93.7478 39.2479 95.4626 39.1656C97.1774 39.0833 99.7015 41.7721 99.7015 41.7721L103.611 46.0933C103.611 46.0933 91.4157 47.8767 84.488 49.3309L81.3053 49.9756L81.8129 48.3294L84.7898 47.7533C85.4345 44.2277 85.9833 40.2356 85.8049 38.905L84.5154 39.1382C84.5154 39.1382 83.7746 44.7489 79.4808 45.8464C76.257 46.6695 69.6722 48.1922 63.499 49.2348H63.4579C62.6073 49.372 61.7568 49.5092 60.9337 49.6327V49.6052L57.8882 50.0442L58.3958 48.4803L61.0434 48.0962C61.4962 41.58 62.6485 23.9658 63.2109 21.9766C63.938 19.4662 64.6513 18.7665 64.6513 18.7665L63.4441 17.1341C63.4441 17.1341 57.463 22.5391 55.9402 25.6531C53.3749 30.8935 52.6753 61.0051 52.6753 61.0051L54.3215 60.7445C69.9878 58.8239 79.4945 56.1351 79.4945 56.1351C79.4945 56.1351 79.5494 56.1351 79.6454 56.1077L79.0967 59.3726C79.6728 61.0325 96.4503 57.795 96.4503 57.795L111.842 54.8456L117 46.5872V44.8724L115.039 44.4609L115.066 44.4746Z" fill="#B87FB7"/>
<path d="M49.6844 32.2791C48.2852 31.36 46.8722 30.4683 45.4318 29.6178C42.5647 27.903 39.6289 26.2979 36.6246 24.8301C34.7452 23.9109 32.66 23.1153 30.9315 21.8944C47.3523 19.4662 71.6062 12.854 71.6062 12.854C71.6062 12.854 74.7614 12.3464 75.5845 10.1652C76.4076 7.98403 78.2322 2.27723 77.9166 0L76.6271 0.233211C76.6271 0.233211 75.8863 1.46786 71.5925 2.57904C67.2987 3.6765 32.2074 11.441 32.0016 11.5096C29.546 12.3053 24.484 26.9153 24.1547 28.1499C24.0176 28.6575 23.6883 29.4531 24.0861 29.9058C25.6775 31.7578 27.9547 32.6769 30.1085 33.7058C32.6463 34.913 35.1431 36.2025 37.5849 37.5881C39.9719 38.9325 42.3177 40.3454 44.6087 41.8682C45.0065 42.1288 45.5141 42.4032 45.6924 42.8696C45.6924 42.8696 45.6101 43.0342 45.5552 43.1302C44.8556 44.2689 43.4701 46.3678 42.8939 47.6024C40.1777 45.7642 37.0636 43.6241 37.0636 43.6241L29.5323 54.0088L33.6752 56.6153L31.9193 57.3012L29.5735 55.8745C29.5735 55.8745 16.253 60.3604 9.16065 59.4276C2.05458 58.4947 3.75566 51.9374 3.75566 51.9374L2.05458 52.9525C-0.949718 59.2629 -1.47101 68.0289 6.12891 70.3473C13.7288 72.6657 21.4248 66.0946 21.4248 66.0946C21.4248 66.0946 26.7749 62.1849 32.1662 62.1438C37.5712 62.1026 41.9199 64.9697 41.9199 64.9697L50.3704 53.3915L50.3292 51.5258C50.3292 51.5258 48.1754 51.0183 46.6115 50.0854C46.2686 49.8796 45.6238 49.4544 44.8282 48.9331C47.4346 45.3389 49.5198 40.9353 50.6584 36.6552C50.8642 35.8596 51.262 34.6935 51.0425 33.8567C50.8505 33.1296 50.2606 32.6906 49.6707 32.3065L49.6844 32.2791Z" fill="#B87FB7"/>
<path d="M87.4919 25.7219C93.8023 24.4461 100.058 22.9782 106.272 21.332C107.287 21.0576 108.248 19.6995 108.837 18.9039C108.975 18.7255 110.196 16.7638 109.578 16.9284C103.364 18.5746 97.1084 20.0425 90.7979 21.3183C89.7965 21.5241 88.7814 22.9919 88.2326 23.7464C88.0955 23.9385 86.8471 25.859 87.4919 25.7219Z" fill="#B87FB7"/>
</svg>
