<svg width="33" height="20" viewBox="0 0 33 20" fill="none" xmlns="http://www.w3.org/2000/svg">
<path fill-rule="evenodd" clip-rule="evenodd" d="M8.69672 11.0398C8.55588 10.987 8.41504 10.943 8.30942 10.899C7.64924 10.6437 7.63163 10.0803 7.63163 10.0803C6.72499 11.1895 5.51027 11.1983 4.58602 10.0715C4.58602 10.0715 4.66524 10.6085 3.92585 10.899C2.94879 11.2775 0.343292 11.8233 0.176047 13.1701C0 14.5169 0 15.9782 0 15.9782H1.69005V15.5909C1.69005 15.45 1.81328 15.3268 1.95412 15.3268C2.09496 15.3268 2.21819 15.45 2.21819 15.5909V15.9782H7.05948V15.9606C7.05948 15.0627 7.19152 14.0328 7.30595 13.1437C7.33236 12.9677 7.37637 12.7916 7.42918 12.6243C7.66684 11.9641 8.13337 11.4536 8.69672 11.0398ZM24.5409 10.9518C24.5938 10.9342 24.6466 10.9166 24.6994 10.899C25.3508 10.6437 25.3684 10.0803 25.3684 10.0803C26.275 11.1895 27.4897 11.1983 28.414 10.0715C28.414 10.0715 28.3348 10.6085 29.083 10.899C30.0512 11.2775 32.6567 11.8233 32.8328 13.1701C33 14.5169 33 15.9782 33 15.9782H31.3099V15.5909C31.3099 15.45 31.1955 15.3268 31.0459 15.3268C30.905 15.3268 30.7818 15.45 30.7818 15.5909V15.9782H26.3014V15.9606C26.3014 15.0627 26.1606 14.0328 26.0461 13.1437C25.9229 12.193 25.3067 11.4888 24.5409 10.9518ZM29.4438 6.35673C29.4438 7.56272 29.215 8.23174 28.502 9.39371C27.9475 10.1067 27.4105 10.4324 26.8912 10.3884C26.363 10.4324 25.8349 10.1067 25.2715 9.39371C24.5585 8.23174 24.3385 7.56272 24.3385 6.35673C24.3385 2.87082 29.4438 2.87082 29.4438 6.35673ZM15.4393 18.1701L16.6804 20.0011L17.9216 18.1701L17.0854 11.8761H16.3196L15.4393 18.1701ZM25.2891 15.9606C25.2891 15.9606 25.2891 15.1772 25.0515 13.2758C24.805 11.3743 21.1344 10.6085 19.7701 10.0803C18.837 9.71941 18.8194 8.91835 18.8194 8.91835C17.5431 10.4941 15.8266 10.5029 14.5327 8.90955C14.5327 8.90955 14.6383 9.6754 13.5908 10.0803C12.2177 10.6085 8.55588 11.3743 8.30942 13.2758C8.06295 15.1772 8.06295 15.9606 8.06295 15.9606H15.1312L15.7122 11.7705C15.7562 11.48 16.0203 11.3831 16.3107 11.3831H17.1294C17.4198 11.3831 17.6487 11.48 17.6839 11.7705L18.2385 15.9606H25.2891ZM13.0803 3.68068C13.0803 5.37962 13.3972 6.32152 14.4006 7.95885C15.1929 8.96237 15.9411 9.42012 16.6804 9.3585C17.4198 9.42012 18.168 8.96237 18.9515 7.95885C19.9637 6.32152 20.2718 5.37962 20.2718 3.68068C20.2718 -1.23129 13.0803 -1.22249 13.0803 3.68068ZM3.56495 6.35673C3.56495 7.56272 3.78501 8.23174 4.498 9.39371C5.06135 10.1067 5.58949 10.4324 6.11763 10.3884C6.63697 10.4324 7.17391 10.1067 7.72846 9.39371C8.44145 8.23174 8.67031 7.56272 8.67031 6.35673C8.67031 2.87082 3.56495 2.87082 3.56495 6.35673Z" fill="white"/>
</svg>
