<svg width="26" height="33" viewBox="0 0 26 33" fill="none" xmlns="http://www.w3.org/2000/svg">
<path d="M3.30502 26.3064H22.5536C23.9652 26.3064 25.2056 25.4509 25.6761 24.1249C26.1467 22.7989 25.8045 21.3445 24.7351 20.4035C22.6819 18.6497 21.7837 16.4682 21.9975 13.9445C22.2969 10.2659 21.4842 7.40001 19.6021 5.43238C18.5328 4.32024 17.2923 3.63584 16.1374 3.29365C16.1374 3.25087 16.1374 3.25087 16.1374 3.2081C16.1374 1.45434 14.6831 0 12.9293 0C11.1755 0 9.72121 1.45434 9.72121 3.2081C9.72121 3.25087 9.72121 3.25087 9.72121 3.29365C8.5663 3.67862 7.32583 4.32024 6.25647 5.43238C4.37438 7.40001 3.60444 10.2659 3.90386 13.9873C4.11774 16.511 3.17669 18.6925 1.16629 20.4463C0.0969217 21.3873 -0.28805 22.8416 0.225245 24.1677C0.652991 25.4509 1.89346 26.3064 3.30502 26.3064ZM12.9293 1.71098C13.6565 1.71098 14.2553 2.22428 14.3836 2.8659C13.6565 2.73758 13.1004 2.73758 12.9293 2.78035C12.7582 2.78035 12.2021 2.78035 11.475 2.8659C11.6033 2.22428 12.2021 1.71098 12.9293 1.71098ZM2.23565 21.7295C4.71658 19.5908 5.82872 16.9387 5.57207 13.8162C5.31542 10.6509 5.95704 8.21273 7.49693 6.58729C9.42179 4.53411 12.2877 4.44856 12.801 4.44856C12.8438 4.44856 12.8865 4.44856 12.8865 4.44856H12.9293H12.9721C13.1004 4.44856 16.2657 4.36301 18.3617 6.58729C19.9016 8.16995 20.5432 10.6081 20.2865 13.8162C20.0299 16.9387 21.1848 19.5908 23.623 21.7295C24.2646 22.2856 24.2646 23.0127 24.0935 23.526C23.9224 24.0393 23.4091 24.5954 22.5536 24.5954H3.30502C2.44953 24.5954 1.979 24.0393 1.76513 23.526C1.59403 23.0127 1.59403 22.2856 2.23565 21.7295Z" fill="#0E4B64"/>
<path d="M15.581 29.4521C15.1105 30.4787 14.0411 31.1203 12.929 31.1203C11.8169 31.1203 10.7475 30.4787 10.277 29.4521C10.0631 29.0244 9.54981 28.8533 9.12207 29.0671C8.69432 29.281 8.52322 29.7943 8.73709 30.2221C9.50704 31.8475 11.1325 32.8741 12.929 32.8741C14.7255 32.8741 16.351 31.8475 17.1209 30.2221C17.3348 29.7943 17.1209 29.281 16.7359 29.0671C16.3082 28.8533 15.7949 29.0244 15.581 29.4521Z" fill="#0E4B64"/>
</svg>
