<svg width="24" height="24" viewBox="0 0 24 24" fill="none" xmlns="http://www.w3.org/2000/svg">
<g clip-path="url(#clip0_994_2322)">
<path d="M9.03988 23.96L9.04046 23.9606C9.16742 24.0863 9.33371 24.15 9.49998 24.15C9.66608 24.15 9.8329 24.0863 9.9593 23.9588C9.95939 23.9587 9.95949 23.9586 9.95959 23.9585L23.959 9.95905C24.2126 9.70547 24.2126 9.2935 23.959 9.03992L22.3583 7.43916C22.8727 6.73417 23.15 5.88829 23.15 4.99998C23.15 2.71114 21.2888 0.849982 19 0.849982C18.1117 0.849982 17.2658 1.12727 16.5608 1.64168L14.96 0.0409165C14.7065 -0.212662 14.2945 -0.212662 14.0409 0.0409164L0.0409165 14.0409C-0.212662 14.2945 -0.212662 14.7065 0.0409164 14.96L1.64168 16.5608C1.12727 17.2658 0.849982 18.1117 0.849982 19C0.849982 21.2888 2.71114 23.15 4.99998 23.15C5.88827 23.15 6.73414 22.8727 7.43912 22.3583L9.03988 23.96ZM7.93508 21.0149L7.9345 21.0144C7.80755 20.8887 7.64126 20.825 7.47498 20.825C7.30891 20.825 7.14212 20.8886 7.01573 21.0161C6.47688 21.5539 5.7611 21.85 4.99998 21.85C3.42883 21.85 2.14998 20.5711 2.14998 19C2.14998 18.2387 2.44621 17.5228 2.98414 16.984C3.23763 16.7304 3.2376 16.3185 2.98405 16.0649L1.41911 14.5L14.5 1.41911L16.0649 2.98405C16.3185 3.2376 16.7304 3.23763 16.984 2.98414C17.5228 2.44621 18.2387 2.14998 19 2.14998C20.5711 2.14998 21.85 3.42883 21.85 4.99998C21.85 5.76123 21.5538 6.47712 21.0158 7.01601C20.7623 7.2696 20.7624 7.6815 21.0159 7.93505L22.5809 9.49998L9.50002 22.5808L7.93508 21.0149Z" fill="white" stroke="white" stroke-width="0.3"/>
<path d="M11.4322 15.4779L11.4319 15.4779C11.3201 15.4779 11.2091 15.4693 11.0969 15.4534L11.0964 15.4533C10.4872 15.3653 9.89231 15.0545 9.41782 14.58C8.44045 13.6026 8.20607 12.1888 8.96025 11.2951C9.19062 11.0209 9.60124 10.9848 9.8766 11.2172C9.87662 11.2173 9.87664 11.2173 9.87665 11.2173L9.77988 11.3319L11.4322 15.4779ZM11.4322 15.4779C11.964 15.4768 12.4565 15.2903 12.8128 14.9351L12.8131 14.9348C13.2065 14.5403 13.3843 14.0606 13.3343 13.5007C13.2851 12.9499 13.0167 12.3318 12.5435 11.6438L12.5432 11.6434L12.5397 11.638L12.5318 11.6263L12.5106 11.5952L12.4897 11.5648C12.4839 11.5563 12.481 11.5521 12.4807 11.5517L12.4807 11.5517L12.4794 11.5498C12.1893 11.1289 12.0276 10.7961 11.975 10.5365C11.9242 10.2858 11.976 10.1143 12.106 9.98389C12.2491 9.84082 12.4888 9.7848 12.7823 9.8436C13.0732 9.90186 13.3942 10.0704 13.6639 10.3391C13.9227 10.5973 14.0896 10.9048 14.1537 11.1879C14.2184 11.4735 14.1751 11.7134 14.0472 11.8652C13.8161 12.1392 13.8495 12.5499 14.1242 12.7815L14.1244 12.7817C14.4008 13.014 14.809 12.9777 15.0403 12.7049L15.0405 12.7046C15.7947 11.811 15.5603 10.3972 14.583 9.41983L14.5829 9.41977C13.5727 8.41057 12.0473 8.20741 11.1879 9.06576L11.1878 9.06583C10.7932 9.4604 10.6155 9.94077 10.6659 10.5011C10.7155 11.0529 10.9853 11.6721 11.46 12.3605L11.5227 12.453L11.5227 12.453M11.4322 15.4779L11.5227 12.453M11.5227 12.453L11.5233 12.454M11.5227 12.453L11.5233 12.454M11.5233 12.454C11.8125 12.8739 11.9736 13.2059 12.026 13.4649C12.0765 13.7149 12.0248 13.8858 11.8949 14.0157L11.5233 12.454Z" fill="white" stroke="white" stroke-width="0.3"/>
<path d="M9.03994 14.96L9.04049 14.9606C9.16744 15.0863 9.33373 15.15 9.50001 15.15C9.66544 15.15 9.83168 15.0861 9.95853 14.9606L9.95907 14.96L14.9591 9.96005C15.2127 9.70647 15.2127 9.2945 14.9591 9.04092C14.7055 8.78734 14.2935 8.78734 14.0399 9.04092L9.03994 14.0409C8.78636 14.2945 8.78636 14.7065 9.03994 14.96Z" fill="white" stroke="white" stroke-width="0.3"/>
</g>
<defs>
<clipPath id="clip0_994_2322">
<rect width="24" height="24" fill="white"/>
</clipPath>
</defs>
</svg>
