<svg width="35" height="35" viewBox="0 0 35 35" fill="none" xmlns="http://www.w3.org/2000/svg">
<g clip-path="url(#clip0_1331_2484)">
<path d="M0.730631 35C0.536673 35 0.351465 34.9227 0.214382 34.7871C0.0772982 34.6515 0.00146484 34.4648 0.00146484 34.2708C0.00146484 29.7165 1.55459 27.1148 4.75271 26.3156L10.3381 24.9185L10.8456 22.8871C9.43688 21.4317 8.46709 19.4644 8.16376 17.4592C7.2523 17.2812 6.52896 16.5346 6.41084 15.5823L6.04626 12.6656C5.96751 12.0458 6.16001 11.4187 6.57563 10.9492C6.83959 10.6473 7.18084 10.4285 7.55709 10.3104C7.45209 9.41938 7.29313 7.94646 7.29313 7.29167C7.29313 4.47708 8.1375 1.59104 14.3515 1.46125C16.5258 0 18.865 0 19.8785 0C22.451 0 24.3104 0.847292 25.4027 2.51708C26.826 4.69 26.145 6.18771 25.324 7.06125L24.7785 7.60813L24.6444 10.3542C24.9783 10.481 25.2802 10.6881 25.5194 10.9623C25.9277 11.4304 26.1173 12.0517 26.04 12.6671L25.6754 15.5837C25.5646 16.4762 24.92 17.1908 24.0873 17.4213C24.08 17.4679 24.0727 17.5146 24.0654 17.5627C24.0013 17.9608 23.6192 18.2335 23.2313 18.1694C22.8346 18.1067 22.5619 17.7333 22.6246 17.3352C22.6567 17.1281 22.6902 16.9196 22.7077 16.7125C22.7383 16.3333 23.0548 16.0417 23.434 16.0417C23.8729 16.0417 24.1835 15.7675 24.2288 15.4029L24.5933 12.4863C24.6196 12.2792 24.5583 12.0779 24.4213 11.9204C24.2813 11.7615 24.0888 11.6725 23.8773 11.6696C23.679 11.6681 23.4908 11.5835 23.3552 11.4406C23.2196 11.2963 23.1481 11.1038 23.1583 10.9054L23.3363 7.25667C23.345 7.07583 23.4208 6.90521 23.5492 6.77688L24.2783 6.04771C24.7348 5.56208 25.1519 4.79646 24.185 3.31625C23.3756 2.08396 21.9275 1.45833 19.8785 1.45833C18.3852 1.45833 16.6367 1.61583 15.0092 2.78104C14.8881 2.86708 14.7408 2.91521 14.5921 2.91667C9.19917 2.97063 8.75146 5.01667 8.75146 7.29167C8.75146 8.00479 8.99646 10.099 9.0898 10.8471C9.11605 11.0542 9.05188 11.2627 8.91334 11.4202C8.77626 11.5763 8.57646 11.6667 8.36646 11.6667H8.21626C8.00334 11.6667 7.80792 11.7542 7.66938 11.9131C7.52792 12.0721 7.46521 12.2748 7.49292 12.4848L7.85751 15.4015C7.90271 15.7675 8.21334 16.0417 8.58084 16.0417H8.81709C9.19771 16.0417 9.51417 16.3333 9.54334 16.7125C9.70376 18.7235 10.6794 20.7492 12.1523 22.1287C12.3463 22.3096 12.4265 22.5808 12.3623 22.8375L11.6477 25.6973C11.5806 25.9583 11.3779 26.1625 11.1154 26.2281L5.10563 27.7302C2.77959 28.3121 1.61584 30.1656 1.47438 33.5417L19.8406 33.5402C20.2431 33.5402 20.5698 33.8669 20.5698 34.2694C20.5698 34.6719 20.2431 34.9985 19.8406 34.9985L0.730631 35Z" fill="white"/>
<path d="M26.9776 35C22.556 35 18.9568 31.4023 18.9568 26.9792C18.9568 22.556 22.556 18.9583 26.9776 18.9583C31.3993 18.9583 34.9985 22.556 34.9985 26.9792C34.9985 31.4023 31.3993 35 26.9776 35ZM26.9776 20.4167C23.3595 20.4167 20.4151 23.361 20.4151 26.9792C20.4151 30.5973 23.3595 33.5417 26.9776 33.5417C30.5957 33.5417 33.5401 30.5973 33.5401 26.9792C33.5401 23.361 30.5957 20.4167 26.9776 20.4167Z" fill="white"/>
<path d="M26.9792 32.0833C26.7896 32.0833 26.6 32.0104 26.4673 31.8646C26.3229 31.7333 26.25 31.5438 26.25 31.3542C26.25 31.1646 26.3229 30.975 26.4673 30.8438C26.6583 30.6396 26.9792 30.5667 27.2548 30.6833C27.3437 30.7125 27.4298 30.7708 27.4881 30.8438C27.6354 30.975 27.7083 31.1646 27.7083 31.3542C27.7083 31.5438 27.6354 31.7333 27.4896 31.8646C27.4312 31.9375 27.3437 31.9958 27.2562 32.025C27.1687 32.0688 27.0667 32.0833 26.9792 32.0833Z" fill="white"/>
<path d="M26.9775 29.1667C26.5736 29.1667 26.2469 28.8385 26.2484 28.436L26.2513 26.9777C26.2513 26.6335 26.4948 26.336 26.8317 26.2646L26.9936 26.234C28.4752 25.9598 29.1636 25.5019 29.1636 24.7902C29.1636 23.9998 28.1602 23.3319 26.9746 23.3319C25.8327 23.3319 24.8498 23.9517 24.7856 24.7129C24.7536 25.1154 24.3715 25.426 23.9981 25.3779C23.5971 25.3444 23.2996 24.9915 23.3331 24.5904C23.4659 23.0431 25.0306 21.875 26.9761 21.875C28.9871 21.875 30.6234 23.1831 30.6234 24.7917C30.6234 26.1844 29.6434 27.1192 27.7081 27.5756L27.7067 28.4404C27.7052 28.8415 27.3786 29.1667 26.9775 29.1667Z" fill="white"/>
</g>
<defs>
<clipPath id="clip0_1331_2484">
<rect width="35" height="35" fill="white"/>
</clipPath>
</defs>
</svg>
