<svg width="29" height="34" viewBox="0 0 29 34" fill="none" xmlns="http://www.w3.org/2000/svg">
<path d="M23.375 26.9167H9.20833C8.81733 26.9167 8.5 27.234 8.5 27.625C8.5 28.016 8.81733 28.3333 9.20833 28.3333H23.375C23.766 28.3333 24.0833 28.016 24.0833 27.625C24.0833 27.234 23.766 26.9167 23.375 26.9167ZM24.7917 0H3.54167C1.5895 0 0 1.58808 0 3.54167V30.4583C0 32.4119 1.5895 34 3.54167 34H24.7917C26.7438 34 28.3333 32.4119 28.3333 30.4583V3.54167C28.3333 1.58808 26.7438 0 24.7917 0ZM4.25 32.5833H3.54167C2.37008 32.5833 1.41667 31.6299 1.41667 30.4583V3.54167C1.41667 2.37008 2.37008 1.41667 3.54167 1.41667H4.25V32.5833ZM26.9167 30.4583C26.9167 31.6299 25.9632 32.5833 24.7917 32.5833H5.66667V1.41667H24.7917C25.9632 1.41667 26.9167 2.37008 26.9167 3.54167V30.4583ZM23.375 24.0833H9.20833C8.81733 24.0833 8.5 24.4007 8.5 24.7917C8.5 25.1827 8.81733 25.5 9.20833 25.5H23.375C23.766 25.5 24.0833 25.1827 24.0833 24.7917C24.0833 24.4007 23.766 24.0833 23.375 24.0833ZM16.2917 5.66667C11.9949 5.66667 8.5 9.163 8.5 13.4583C8.5 17.7537 11.9949 21.25 16.2917 21.25C20.5884 21.25 24.0833 17.7537 24.0833 13.4583C24.0833 9.163 20.5884 5.66667 16.2917 5.66667ZM21.5872 9.91667H19.4608C19.2652 9.03267 18.9947 8.22092 18.6504 7.548C19.8503 8.02825 20.876 8.85558 21.5872 9.91667ZM16.2917 7.08333C16.8527 7.08333 17.5709 8.13167 18.0129 9.91667H14.5704C15.0124 8.13167 15.7307 7.08333 16.2917 7.08333ZM10.3091 15.5833C10.0697 14.9161 9.91667 14.2077 9.91667 13.4583C9.91667 12.7103 10.0697 12.0006 10.3091 11.3333H12.8803C12.7939 12.0317 12.75 12.7486 12.75 13.4583C12.75 14.1681 12.7939 14.8849 12.8803 15.5833H10.3091ZM10.9962 17H13.1226C13.3181 17.884 13.5887 18.6957 13.9329 19.3687C12.733 18.8884 11.7073 18.0611 10.9962 17ZM13.1226 9.91667H10.9962C11.7073 8.85558 12.733 8.02825 13.9329 7.548C13.5901 8.22092 13.3181 9.03267 13.1226 9.91667ZM16.2917 19.8333C15.7307 19.8333 15.0124 18.785 14.5704 17H18.0129C17.5709 18.785 16.8527 19.8333 16.2917 19.8333ZM18.2693 15.5833H14.3126C14.2276 14.9302 14.1667 14.2304 14.1667 13.4583C14.1667 12.6862 14.2276 11.9864 14.314 11.3333H18.2708C18.3557 11.9864 18.4167 12.6862 18.4167 13.4583C18.4167 14.2304 18.3557 14.9302 18.2693 15.5833ZM18.6504 19.3687C18.9947 18.6957 19.2652 17.884 19.4608 17H21.5872C20.876 18.0611 19.8503 18.8884 18.6504 19.3687ZM22.6667 13.4583C22.6667 14.2077 22.5137 14.9161 22.2742 15.5833H19.703C19.7894 14.8849 19.8333 14.1681 19.8333 13.4583C19.8333 12.7486 19.7894 12.0317 19.703 11.3333H22.2742C22.5137 12.0006 22.6667 12.7103 22.6667 13.4583Z" fill="white"/>
</svg>
