<svg width="16" height="16" viewBox="0 0 16 16" fill="none" xmlns="http://www.w3.org/2000/svg">
<g clip-path="url(#clip0_1456_2895)">
<path d="M7.66667 0C3.43933 0 0 3.43933 0 7.66667C0 11.894 3.43933 15.3333 7.66667 15.3333C11.894 15.3333 15.3333 11.894 15.3333 7.66667C15.3333 3.43933 11.894 0 7.66667 0ZM10.9027 10.9027C10.8373 10.9673 10.752 11 10.6667 11C10.5813 11 10.496 10.9673 10.4307 10.9027L7.43067 7.90267C7.36867 7.84 7.33333 7.75533 7.33333 7.66667V2.33333C7.33333 2.14933 7.48267 2 7.66667 2C7.85067 2 8 2.14933 8 2.33333V7.52867L10.9027 10.4313C11.0327 10.5613 11.0327 10.772 10.9027 10.9027Z" fill="#0E4B64"/>
</g>
<defs>
<clipPath id="clip0_1456_2895">
<rect width="16" height="16" fill="white"/>
</clipPath>
</defs>
</svg>
