<svg width="16" height="18" viewBox="0 0 16 18" fill="none" xmlns="http://www.w3.org/2000/svg">
<path d="M12.9932 1.47498H8.20624V0.737489C8.20624 0.330395 7.89988 0 7.52239 0C7.1449 0 6.83854 0.330395 6.83854 0.737489V1.47498H2.05156C0.920467 1.47498 0 2.46764 0 3.68744V5.16242C0 5.56952 0.306366 5.89991 0.683854 5.89991H1.48533L3.43295 17.0979C3.49176 17.4475 3.77487 17.6997 4.10312 17.6997H10.9417C11.2699 17.6997 11.553 17.4475 11.6132 17.0979L13.5594 5.89991H14.3609C14.7384 5.89991 15.0448 5.56952 15.0448 5.16242V3.68744C15.0448 2.46764 14.1243 1.47498 12.9932 1.47498ZM10.3741 16.2248H4.67072L2.87492 5.89991H12.1699L10.3741 16.2248ZM13.6771 4.42493H1.36771V3.68744C1.36771 3.28035 1.67544 2.94996 2.05156 2.94996H12.9932C13.3693 2.94996 13.6771 3.28035 13.6771 3.68744V4.42493Z" fill="#B87FB7"/>
<path d="M5.60287 14.1597C5.62882 14.1597 5.65241 14.1583 5.67836 14.154C6.00151 14.1059 6.23032 13.7518 6.19022 13.3638L5.60052 7.69889C5.55924 7.30943 5.25967 7.04176 4.94123 7.08425C4.61807 7.1324 4.38926 7.48646 4.42936 7.8745L5.01907 13.5394C5.05563 13.8977 5.31038 14.1597 5.60287 14.1597Z" fill="#B87FB7"/>
<path d="M8.48126 14.154C8.50603 14.1583 8.53079 14.1597 8.55556 14.1597C8.84806 14.1597 9.10282 13.8977 9.14056 13.5394L9.73028 7.8745C9.77038 7.48646 9.54039 7.1324 9.2184 7.08425C8.89878 7.04176 8.5992 7.30943 8.5591 7.69889L7.96938 13.3638C7.92928 13.7518 8.15927 14.1059 8.48126 14.154Z" fill="#B87FB7"/>
</svg>
